<?xml version="1.0" encoding="utf-8"?>
<!-- Generator: Adobe Illustrator 25.0.0, SVG Export Plug-In . SVG Version: 6.00 Build 0)  -->
<svg version="1.1" id="Layer_1" xmlns="http://www.w3.org/2000/svg" xmlns:xlink="http://www.w3.org/1999/xlink" x="0px" y="0px"
	 viewBox="0 0 595.28 841.89" style="enable-background:new 0 0 595.28 841.89;" xml:space="preserve">
<style type="text/css">
	.st0{fill:#4C8DC8;}
	.st1{fill:#81C145;}
	.st2{fill:#293866;}
	.st3{fill:#799641;}
	.st4{fill:#4D7082;}
	.st5{fill:#6593B8;}
	.st6{fill:#396F9D;}
	.st7{fill:#6D7F9F;}
	.st8{fill:#60A092;}
	.st9{fill:#869CA2;}
	.st10{fill:#C6C79D;}
</style>
<g>
	<path class="st0" d="M202.95,457.86c0.01-0.62,0.01-1.23,0.02-1.85c0.37-1.53,1.1-3.07,1.05-4.59c-0.22-6.49-0.67-12.98-1.03-19.47
		c0-2.96-0.01-5.93-0.01-8.89c3.1-1.67,3.11-3.35,0-5.03c0-2.66,0.01-5.33,0.01-7.99c0.54-0.24,1.08-0.48,1.62-0.73
		c-0.54-0.4-1.08-0.8-1.63-1.19c-0.01-2.65-0.02-5.29-0.03-7.94c0.05-4.67,0.09-9.34,0.13-14.02c0.03-0.69,0.07-1.37,0.1-2.06
		c-0.13-1-0.26-1.99-0.4-2.99c-0.22-1.39-0.44-2.77-0.66-4.16c0,0,0.04-0.21,0.04-0.21c0.04-0.23,0.17-0.4,0.38-0.51
		c0.15-2.74,0.3-5.49,0.44-8.23c-0.02-7.88-0.05-15.76-0.07-23.65c0.39-1.7,1.1-3.39,1.1-5.09c0.08-16.28,0.22-32.56-0.03-48.84
		c-0.14-8.99,3.52-10.99,11.54-11.89c11.32-1.27,22.71-1.99,34.04-3.26c4.51-0.5,8.93-1.83,13.4-2.79c0.58-0.04,1.15-0.08,1.73-0.12
		c8.39-0.93,16.77-1.85,25.16-2.78c6.74-0.94,13.49-1.88,20.23-2.82c8.57-0.83,17.13-1.66,25.7-2.49
		c14.31-1.41,28.61-2.84,42.92-4.24c12.02-1.17,24.03-2.32,36.05-3.48c0.32-0.01,0.64-0.04,0.96-0.11c0.54-0.02,1.08-0.05,1.63-0.07
		c8.75-0.95,17.5-1.9,26.25-2.84c1.7-0.19,3.4-0.38,5.1-0.57c1.95-0.21,3.9-0.42,5.85-0.63c1.03-0.17,2.06-0.33,3.1-0.5
		c5.84-0.23,11.69-0.3,17.51-0.75c2.82-0.22,5.58-1.15,8.37-1.76c0.68-0.1,1.36-0.2,2.04-0.31c0.31-0.05,0.61-0.09,0.92-0.14
		c10.39-1.09,20.78-2.22,31.18-3.23c2.13-0.21,4.33-0.13,6.47,0.09c6.39,0.65,8.43,2.82,8.46,9.12c0.06,12.45-0.03,24.89,0.08,37.34
		c0.03,3.3-0.83,4.11-4.36,3.72c-5.58-0.61-11.28-0.41-16.92-0.15c-4.19,0.19-5.03-1.65-4.85-5.4c0.42-8.9,0.51-17.83,0.69-26.74
		c0.07-3.47-2.28-3.49-4.79-3.24c-11.23,1.12-22.46,2.19-33.68,3.35c-24.59,2.55-49.17,5.17-73.75,7.73
		c-19.63,2.05-39.27,4.07-58.91,6.11c-4.08,0.38-8.17,0.76-12.25,1.15c-0.9,0.08-1.79,0.16-2.69,0.24
		c-3.49-0.04-7.3-2.18-10.19,1.58c-0.28,0.18-0.58,0.29-0.9,0.34c-10.38,0.92-20.77,1.73-31.14,2.77
		c-15.18,1.52-30.32,3.31-45.51,4.72c-3.54,0.33-4.88,1.43-4.86,5.08c0.12,21.21,0.02,42.42,0.06,63.63
		c0.01,8.1,0.18,16.2,0.28,24.3c-0.04,4.44-0.07,8.88-0.11,13.33c-0.07,4.96-0.14,9.91-0.2,14.87c-0.15,12.78-0.29,25.57-0.42,38.35
		c-0.02,1.61,0.13,3.22,0.23,5.54c7.92-0.95,15.3-1.8,22.67-2.74c28.17-3.57,56.34-7.14,84.51-10.75
		c27.34-3.5,54.67-7.07,82.01-10.56c27.02-3.46,54.04-6.87,81.06-10.29c0.49-0.06,0.99-0.08,1.49-0.14c7.3-0.89,7.31-0.89,7.31-8.07
		c0-7.81,0.09-15.62-0.09-23.42c-0.07-3.02,0.93-4.13,3.99-4.06c7.1,0.16,14.21,0.05,21.76,0.05c0,9.5,0,18.57,0,27.65
		c0,2.66-0.02,5.32-0.04,7.97c-0.06,6.87-1.6,8.82-8.45,9.73c-25.18,3.38-50.36,6.69-75.56,9.96
		c-43.3,5.62-86.61,11.24-129.92,16.75c-34.1,4.34-68.22,8.58-102.36,12.63c-3.11,0.37-6.42-1.02-9.64-1.59
		c-0.72-0.54-1.45-1.08-2.17-1.62c0,0,0.06,0.03,0.06,0.03C204.34,462.63,203.64,460.25,202.95,457.86z"/>
	<path class="st1" d="M335.78,264.31c-8.57,0.83-17.13,1.66-25.7,2.49c-0.12-7.97-0.34-15.94-0.3-23.9
		c0.01-3.17-0.81-4.74-4.31-5.23c-20.23-2.82-40.43-5.93-60.64-8.87c-36.16-5.26-72.33-10.46-108.5-15.69
		c-9.65-1.4-19.3-2.82-29.55-4.32c0,5.95,0,11.38,0,16.8c0,43.68,0.03,87.35-0.06,131.03c-0.01,4.26,0.76,6.47,5.78,7.12
		c15.65,2.03,31.19,4.85,46.8,7.17c14.11,2.1,28.26,3.95,42.39,5.91c0,0,0.15,0.28,0.15,0.28l0.3-0.12
		c0.22,1.39,0.44,2.77,0.65,4.16c0.13,1,0.26,1.99,0.4,2.99c-0.03,0.69-0.07,1.37-0.1,2.06c-0.52,1.48-1.04,2.95-1.56,4.43
		c-37.29-5.67-74.59-11.21-111.85-17.1c-8.87-1.4-9.03-2.18-9.04-11.16c-0.04-51.66-0.06-103.33-0.06-154.99
		c0-9.92,4.66-14.42,14.84-13.36c11.4,1.18,22.72,3.1,34.08,4.72c39.65,5.66,79.31,11.28,118.96,17
		c25.33,3.65,50.68,7.21,75.94,11.27c11.02,1.77,10.96,2.3,11.13,13.43C335.64,248.37,335.69,256.34,335.78,264.31z"/>
	<path class="st1" d="M228.78,394.73c0.04-4.44,0.07-8.88,0.11-13.33c23.31,3.42,46.61,6.83,69.92,10.25
		c1.81,0.26,3.63,0.46,5.41,0.83c4.13,0.84,6.51-0.27,5.85-4.99c-0.45-3.22,1.5-4.08,4.15-4.06c6.14,0.05,12.29-0.03,18.4,0.44
		c1.2,0.09,3.05,2.29,3.2,3.67c0.39,3.6,0.06,7.28-0.08,10.92c-0.24,6.67-2.73,9.79-9.4,9.45c-10.4-0.53-20.8-1.76-31.12-3.23
		C273.04,401.54,250.92,398.07,228.78,394.73z"/>
	<path class="st2" d="M347.09,350.64c0,8.78,0,17.56,0,26.94c-12.96,0-25.43,0-38.38,0c0-10.23,0-20.09,0-30.4
		c2.73-0.13,5.33-0.25,7.93-0.37c3.48,0.03,6.96,0.05,10.44,0.08c1.83,0.01,3.65,0.02,5.48,0.02c0.75,0.14,1.5,0.27,2.24,0.41
		c14.98-0.02,29.97-0.05,44.95-0.07c9.56-0.1,19.11-0.23,28.67-0.26c0.86,0,1.73,0.64,2.59,0.99c-0.1,8.43-0.21,16.85-0.31,25.28
		c-1.04,0.4-2.07,1.15-3.11,1.16c-11.38,0.08-22.75,0.05-35,0.05c0-8.27,0-16.11,0-23.95c-0.96-0.44-1.92-1.26-2.88-1.27
		c-6.58-0.08-13.17-0.04-19.75,0.11C348.99,349.39,348.04,350.19,347.09,350.64z M339.89,350.23c-8.1-0.01-16.2-0.01-24.3-0.02
		c0,8.13,0,16.26,0,24.4c8.47,0,16.69,0,25.3,0c0-4.85,0.13-9.32-0.04-13.77C340.71,357.3,340.22,353.77,339.89,350.23z
		 M404.53,350.33c-8.58,0-16.64,0-24.8,0c0,7.19,0,14.03,0,20.76c8.49,0,16.55,0,24.8,0C404.53,364.09,404.53,357.52,404.53,350.33z
		"/>
	<path class="st3" d="M413.35,335.76c-1.23,0.19-2.46,0.54-3.69,0.55c-14.62,0.06-29.24-0.02-43.85,0.16
		c-3.99,0.05-5.53-1.03-5.36-5.36c0.39-9.61,0.32-19.25,0.13-28.86c-0.07-3.73,1.35-4.94,4.91-4.91
		c14.28,0.11,28.56,0.01,42.84,0.15c1.25,0.01,2.49,1.25,3.73,1.91c-1.34,0.63-2.67,1.8-4.02,1.82
		c-11.79,0.14-23.59,0.18-35.38,0.02c-3.81-0.05-5.39,1.13-5.21,5.15c0.32,7.12,0.29,14.25,0.25,21.38
		c-0.02,3.57,1.46,5.01,5.1,4.95c11.79-0.17,23.59-0.18,35.38-0.11c1.86,0.01,3.71,0.78,5.57,1.2
		C413.61,334.45,413.48,335.11,413.35,335.76z"/>
	<path class="st2" d="M418.17,349.77c6.9-2.84,13.72-1.25,20.37-1.56c2.59-0.12,4.25-0.54,3.84-3.58c-0.34-2.5,0.23-4.2,3.3-4.17
		c3.12,0.03,3.41,1.96,3.32,4.33c-0.03,0.8-0.01,1.6-0.01,3.1c7.77,0,15.29,0,23.44,0c0,4.94,0.35,9.25-0.22,13.42
		c-0.17,1.24-2.85,2.91-4.49,3.05c-4.94,0.42-9.96-0.03-14.91,0.33c-1.44,0.11-3.67,1.55-4,2.79c-1.61,6.06-7.68,11.17-15.82,11.81
		c3.77-4.57,7.07-8.55,10.36-12.54c-0.36-0.69-0.72-1.38-1.07-2.08c-6.22,0-12.45-0.25-18.64,0.09c-4,0.22-5.92-0.7-5.51-5.07
		C418.42,356.43,418.17,353.11,418.17,349.77z M441.58,361.49c-0.07-3.37-0.14-6.74-0.2-10.11c-5.84,0-11.68,0-17.27,0
		c0,3.76,0,6.81,0,11.03C430.24,362.08,435.91,361.78,441.58,361.49z M466.07,351.41c-5.84,0-11.36,0-17.17,0c0,3.49,0,6.67,0,10.36
		c3.06,0,5.83,0.01,8.6,0C467.03,361.72,467.03,361.72,466.07,351.41z"/>
	<path class="st3" d="M527,329c0.67-8.61,1.34-17.21,2.01-25.82c0.43,0,0.86,0,1.29,0.01c0,10.93,0,21.86,0,33.95
		c-2.62-1.54-5.04-2.66-7.11-4.24c-11.56-8.83-23.04-17.77-34.55-26.66c-0.35-0.27-0.85-0.36-1.82-0.76c0,3.51,0,6.7,0,10.4
		c3.1,0.47,6.3,0.95,9.5,1.43c-0.03,0.35-0.05,0.7-0.08,1.04c-2.93,0.32-5.87,0.64-9.84,1.08c0,4.32,0.03,8.72-0.01,13.12
		c-0.02,2.25-0.16,4.3-3.43,4.23c-3.33-0.08-3.19-2.28-3.2-4.43c-0.03-9.79-0.02-19.58,0.03-29.37c0.03-5.16,2.17-6.53,6.3-3.48
		c9,6.65,17.69,13.71,26.53,20.58c4.32,3.36,8.67,6.67,13.01,10C526.08,329.72,526.54,329.36,527,329z"/>
	<path class="st3" d="M313.53,335.89c-6.69,1-6.76,0.98-6.78-5c-0.03-10.42-0.01-20.83-0.01-31.56c4.79-0.37,8.69-1.26,12.24,3.22
		c2.99,3.77,7.36,6.59,11.51,9.2c1.45,0.91,4.42,0.59,6.11-0.3c4.58-2.41,8.84-5.42,14.11-7.61c-0.47,0.99-0.68,2.29-1.44,2.93
		c-3.78,3.13-7.72,6.06-11.57,9.12c-3.89,3.08-7.49,3.8-11.2-0.48c-1.93-2.23-4.32-4.12-6.76-5.81c-1.38-0.96-3.25-1.2-4.91-1.77
		c-0.44,1.51-1.22,3.02-1.25,4.54C313.46,320.12,313.53,327.89,313.53,335.89z"/>
	<path class="st3" d="M462.57,333.24c-11.63-3.76-23.26-7.51-35.41-11.44c0,4.6,0,9.31,0,14.44c-2.64,0-4.68,0-7.23,0
		c0-8.3,0-16.39,0-24.48c0-3.32-0.02-6.64,0.05-9.96c0.05-2.2-0.7-4.94,3.09-4.92c3.81,0.02,3.56,2.65,3.55,5.2
		c-0.01,3.49-0.08,6.98,0,10.46c0.04,1.78,0.35,3.56,1.41,4.22c11.71,5.29,23.42,10.57,35.13,15.86
		C462.88,332.75,462.68,332.95,462.57,333.24z"/>
	<path class="st1" d="M321.15,278.99c0.9-0.08,1.79-0.16,2.69-0.24c3.83-0.03,7.66-0.07,11.49-0.1c0,5.7,0,11.41,0,17.88
		c-7.41,0-14.78,0.17-22.13-0.17c-1.18-0.05-3.09-2.27-3.22-3.63c-0.37-3.9,0-7.88,0.08-11.83c0.32-0.05,0.63-0.16,0.9-0.34
		C314.35,280.05,317.75,279.52,321.15,278.99z"/>
	<path class="st2" d="M512.32,354.3c6.45,0,11.85,0,17.15,0c2.71,13.91-1.87,23.99-11.67,24.32c0.94-1.86,1.39-3.64,2.49-4.79
		c3.62-3.78,3.38-8.37,3.41-13.03c0.01-2.62-1.05-3.52-3.55-3.48c-4.96,0.09-9.92,0.03-15.89,0.03c2.08-4.52,3.82-8.29,6.08-13.19
		c-10.86,0-21.02,0-31.17,0c0.01-0.8,0.01-1.59,0.02-2.39c12.92-0.85,25.89,0.16,39.52-0.06
		C516.6,345.88,514.72,349.56,512.32,354.3z"/>
	<path class="st4" d="M379.75,347.25c-14.98,0.02-29.97,0.05-44.95,0.07c0.08-0.21,0.14-0.43,0.17-0.65
		C349.9,346.86,364.82,347.06,379.75,347.25z"/>
	<path class="st3" d="M393.69,318.53c-8.34,0-15.48,0-23.17,0C373.73,315.29,388,315.19,393.69,318.53z"/>
	<path class="st5" d="M202.98,431.95c0.36,6.49,0.81,12.98,1.03,19.47c0.05,1.52-0.68,3.06-1.05,4.59
		C202.97,447.99,202.98,439.97,202.98,431.95z"/>
	<path class="st5" d="M483.51,249.37c-2.79,0.61-5.55,1.54-8.37,1.76c-5.82,0.45-11.67,0.52-17.51,0.75
		C466.26,251.04,474.89,250.21,483.51,249.37z"/>
	<path class="st5" d="M443.59,253.57c-8.75,0.95-17.5,1.9-26.25,2.84C426.09,255.47,434.84,254.52,443.59,253.57z"/>
	<path class="st5" d="M201.52,390.61c0.52-1.48,1.04-2.95,1.56-4.43c-0.04,4.67-0.09,9.34-0.13,14.02
		C202.47,397,201.99,393.8,201.52,390.61z"/>
	<path class="st6" d="M347.09,350.64c0.96-0.44,1.91-1.25,2.88-1.27c6.58-0.15,13.17-0.19,19.75-0.11c0.96,0.01,1.92,0.83,2.88,1.27
		C364.09,350.56,355.59,350.6,347.09,350.64z"/>
	<path class="st7" d="M410.7,373.26c0.1-8.43,0.21-16.85,0.31-25.28C410.91,356.41,410.8,364.83,410.7,373.26z"/>
	<path class="st8" d="M335.33,278.66c-3.83,0.03-7.66,0.07-11.49,0.1c4.08-0.38,8.17-0.76,12.25-1.15
		C335.84,277.96,335.58,278.31,335.33,278.66z"/>
	<path class="st5" d="M202.97,418.04c3.11,1.68,3.1,3.35,0,5.03C202.97,421.39,202.97,419.71,202.97,418.04z"/>
	<path class="st5" d="M202.95,457.86c0.7,2.38,1.39,4.76,2.09,7.15C201.36,463.5,202.12,460.69,202.95,457.86z"/>
	<path class="st9" d="M327.08,346.89c-3.48-0.03-6.96-0.05-10.44-0.08C320.12,346.83,323.6,346.86,327.08,346.89z"/>
	<path class="st10" d="M462.57,333.24c0.11-0.29,0.31-0.5,0.61-0.62c1.53,0.27,3.06,0.53,4.59,0.8c-0.1,0.51-0.2,1.03-0.3,1.54
		C465.83,334.39,464.2,333.82,462.57,333.24z"/>
	<path class="st5" d="M454.54,252.38c-1.95,0.21-3.9,0.42-5.85,0.63C450.64,252.8,452.59,252.59,454.54,252.38z"/>
	<path class="st5" d="M202.97,408.13c0.54,0.4,1.08,0.8,1.63,1.19c-0.54,0.24-1.08,0.48-1.62,0.73
		C202.98,409.41,202.98,408.77,202.97,408.13z"/>
	<path class="st5" d="M204.97,464.98c0.72,0.54,1.45,1.08,2.17,1.62C206.42,466.06,205.7,465.52,204.97,464.98z"/>
	<path class="st9" d="M334.97,346.67c-0.03,0.22-0.09,0.44-0.17,0.65c-0.75-0.14-1.49-0.27-2.24-0.41
		C333.36,346.83,334.17,346.75,334.97,346.67z"/>
	<path class="st5" d="M415.71,256.49c-0.32,0.06-0.64,0.1-0.96,0.11C415.07,256.56,415.39,256.52,415.71,256.49z"/>
	<path class="st5" d="M486.47,248.92c-0.31,0.05-0.61,0.09-0.92,0.14C485.83,248.84,486.14,248.8,486.47,248.92z"/>
	<path class="st5" d="M202.91,344.37c-0.21-1.45-0.6-2.9-0.6-4.35c-0.02-17.44,0-34.89,0.05-52.33c0.02-6.55,1.63-9.06,8.05-9.81
		c17.49-2.04,35.03-3.61,52.55-5.37c-4.46,0.95-8.88,2.28-13.4,2.79c-11.33,1.26-22.71,1.99-34.04,3.26
		c-8.02,0.9-11.68,2.9-11.54,11.89c0.24,16.28,0.11,32.56,0.03,48.84C204.01,340.98,203.3,342.68,202.91,344.37z"/>
	<path class="st5" d="M264.69,272.39c8.39-0.93,16.77-1.85,25.16-2.78C281.46,270.54,273.08,271.47,264.69,272.39z"/>
	<path class="st8" d="M321.15,278.99c-3.4,0.53-6.8,1.05-10.19,1.58C313.85,276.82,317.66,278.95,321.15,278.99z"/>
	<path class="st5" d="M202.54,376.25c0.15-2.74,0.3-5.49,0.44-8.23C202.84,370.76,202.69,373.51,202.54,376.25z"/>
	<path class="st5" d="M203.17,384.12c-0.13-1-0.27-1.99-0.4-2.99C202.91,382.13,203.04,383.12,203.17,384.12z"/>
	<polygon class="st5" points="201.68,376.81 201.86,376.57 202.16,376.76 202.12,376.97 201.83,377.09 	"/>
	<path class="st6" d="M339.89,350.23c-8.1-0.01-16.19-0.02-24.29-0.02C323.69,350.22,331.79,350.23,339.89,350.23z"/>
	<path class="st5" d="M441.58,361.49c-0.07-3.37-0.13-6.74-0.2-10.11C441.44,354.74,441.51,358.11,441.58,361.49z"/>
</g>
</svg>
